<svg width="63" height="34" viewBox="0 0 63 34" fill="none" xmlns="http://www.w3.org/2000/svg">
<path d="M0 20.5C0 13.3203 5.8203 7.5 13 7.5H26L31.5 0L37 7.5H50C57.1797 7.5 63 13.3203 63 20.5C63 27.6797 57.1797 33.5 50 33.5H13C5.8203 33.5 0 27.6797 0 20.5Z" fill="#D48B34" fill-opacity="0.5"/>
<path d="M16.852 26.14C16.1053 26.14 15.41 26.0187 14.766 25.776C14.1313 25.524 13.576 25.174 13.1 24.726C12.6333 24.2687 12.2693 23.732 12.008 23.116C11.7467 22.5 11.616 21.828 11.616 21.1C11.616 20.372 11.7467 19.7 12.008 19.084C12.2693 18.468 12.638 17.936 13.114 17.488C13.59 17.0307 14.1453 16.6807 14.78 16.438C15.4147 16.186 16.11 16.06 16.866 16.06C17.6687 16.06 18.4013 16.2 19.064 16.48C19.7267 16.7507 20.2867 17.1567 20.744 17.698L19.568 18.804C19.2133 18.4213 18.8167 18.1367 18.378 17.95C17.9393 17.754 17.4633 17.656 16.95 17.656C16.4367 17.656 15.9653 17.74 15.536 17.908C15.116 18.076 14.7473 18.314 14.43 18.622C14.122 18.93 13.8793 19.294 13.702 19.714C13.534 20.134 13.45 20.596 13.45 21.1C13.45 21.604 13.534 22.066 13.702 22.486C13.8793 22.906 14.122 23.27 14.43 23.578C14.7473 23.886 15.116 24.124 15.536 24.292C15.9653 24.46 16.4367 24.544 16.95 24.544C17.4633 24.544 17.9393 24.4507 18.378 24.264C18.8167 24.068 19.2133 23.774 19.568 23.382L20.744 24.502C20.2867 25.034 19.7267 25.44 19.064 25.72C18.4013 26 17.664 26.14 16.852 26.14ZM26.8748 26.14C26.1095 26.14 25.4048 26.014 24.7608 25.762C24.1168 25.51 23.5568 25.16 23.0808 24.712C22.6048 24.2547 22.2361 23.7227 21.9748 23.116C21.7135 22.5 21.5828 21.828 21.5828 21.1C21.5828 20.372 21.7135 19.7047 21.9748 19.098C22.2361 18.482 22.6048 17.95 23.0808 17.502C23.5568 17.0447 24.1168 16.69 24.7608 16.438C25.4048 16.186 26.1048 16.06 26.8608 16.06C27.6261 16.06 28.3261 16.186 28.9608 16.438C29.6048 16.69 30.1648 17.0447 30.6408 17.502C31.1168 17.95 31.4855 18.482 31.7468 19.098C32.0081 19.7047 32.1388 20.372 32.1388 21.1C32.1388 21.828 32.0081 22.5 31.7468 23.116C31.4855 23.732 31.1168 24.264 30.6408 24.712C30.1648 25.16 29.6048 25.51 28.9608 25.762C28.3261 26.014 27.6308 26.14 26.8748 26.14ZM26.8608 24.544C27.3555 24.544 27.8128 24.46 28.2328 24.292C28.6528 24.124 29.0168 23.886 29.3248 23.578C29.6328 23.2607 29.8708 22.8967 30.0388 22.486C30.2161 22.066 30.3048 21.604 30.3048 21.1C30.3048 20.596 30.2161 20.1387 30.0388 19.728C29.8708 19.308 29.6328 18.944 29.3248 18.636C29.0168 18.3187 28.6528 18.076 28.2328 17.908C27.8128 17.74 27.3555 17.656 26.8608 17.656C26.3661 17.656 25.9088 17.74 25.4888 17.908C25.0781 18.076 24.7141 18.3187 24.3968 18.636C24.0888 18.944 23.8461 19.308 23.6688 19.728C23.5008 20.1387 23.4168 20.596 23.4168 21.1C23.4168 21.5947 23.5008 22.052 23.6688 22.472C23.8461 22.892 24.0888 23.2607 24.3968 23.578C24.7048 23.886 25.0688 24.124 25.4888 24.292C25.9088 24.46 26.3661 24.544 26.8608 24.544ZM34.068 26V16.2H38.1C38.968 16.2 39.71 16.34 40.326 16.62C40.9513 16.9 41.432 17.3013 41.768 17.824C42.104 18.3467 42.272 18.9673 42.272 19.686C42.272 20.4047 42.104 21.0253 41.768 21.548C41.432 22.0707 40.9513 22.472 40.326 22.752C39.71 23.032 38.968 23.172 38.1 23.172H35.076L35.888 22.318V26H34.068ZM35.888 22.514L35.076 21.632H38.016C38.8186 21.632 39.4206 21.464 39.822 21.128C40.2326 20.7827 40.438 20.302 40.438 19.686C40.438 19.0607 40.2326 18.58 39.822 18.244C39.4206 17.908 38.8186 17.74 38.016 17.74H35.076L35.888 16.844V22.514ZM46.4974 26V22.122L46.9034 23.242L42.6474 16.2H44.5934L48.0094 21.87H46.9174L50.3614 16.2H52.1534L47.8974 23.242L48.3174 22.122V26H46.4974Z" fill="#FFE769" fill-opacity="0.8"/>
</svg>
