<svg width="43" height="43" viewBox="0 0 43 43" fill="none" xmlns="http://www.w3.org/2000/svg">
<rect x="0.19043" y="0.777771" width="42" height="42" rx="7.21125" fill="#E89900"/>
<path fill-rule="evenodd" clip-rule="evenodd" d="M8.05111 2.91615C4.89093 2.91615 2.3291 5.47799 2.3291 8.63816V35.1941C2.3291 38.3543 4.89093 40.9162 8.05111 40.9162H34.6071C37.7673 40.9162 40.3291 38.3543 40.3291 35.1941V8.63816C40.3291 5.47798 37.7673 2.91615 34.6071 2.91615H8.05111ZM15.9007 11.9638H26.734C27.956 11.9638 28.7481 10.7034 27.7504 9.99787C27.0632 9.5119 26.2424 9.25048 25.4007 9.24946H12.734C11.6542 9.24946 10.6186 9.67842 9.8551 10.442C9.09156 11.2055 8.66261 12.2411 8.66261 13.3209V25.9876C8.66362 26.8293 8.92504 27.65 9.41101 28.3372C10.1165 29.335 11.3769 28.5428 11.3769 27.3208V16.4876C11.3769 15.2878 11.8535 14.1371 12.7019 13.2887C13.5503 12.4404 14.7009 11.9638 15.9007 11.9638ZM29.9245 34.5828H17.2579C16.178 34.5828 15.1425 34.1538 14.3789 33.3903C13.6154 32.6268 13.1864 31.5912 13.1864 30.5114V17.8447C13.1864 16.7649 13.6154 15.7293 14.3789 14.9658C15.1425 14.2022 16.178 13.7733 17.2579 13.7733H29.9245C31.0043 13.7733 32.0399 14.2022 32.8035 14.9658C33.567 15.7293 33.9959 16.7649 33.9959 17.8447V30.5114C33.9959 31.5912 33.567 32.6268 32.8035 33.3903C32.0399 34.1538 31.0043 34.5828 29.9245 34.5828Z" fill="#FFF500"/>
</svg>
